<?xml version="1.0" encoding="UTF-8" standalone="no"?>
<svg xmlns="http://www.w3.org/2000/svg" xmlns:i="&amp;#38;ns_ai;" width="450" height="436" viewBox="0 0 744.09449 1052.3622">
  <g i:dimmedPercent="50" i:layer="yes" i:rgbTrio="#4F008000FFFF" transform="matrix(2.44048 0 0 2.43633 -598.63374 -95.589562)">
    <path fill="#ffc200" d="M204.147 302.392c-4.659 15.826 11.188 28.896 24.93 30.471-5.139 5.35-12.865 5.041-18.95 8.609 10.123 23.785 40.177 29.039 62.263 22.084-18.86 16.998-34.881 38.835-39.004 64.104 1.054 1.41 4.699.842 6.771 1.231 22.802.212 44.3-10.735 61.556-25.237 6.97 17.194-12.719 25.237-26.287 27.268 15.182 21.4 43.549 7.621 53.681-11.57-1.873 13.865-3.702 27.793-6.846 41.443 24.149.088 45.251-16.111 53.014-38.897v-.085c3.548 13.384 1.502 28.128-4.416 40.316 8.388 5.957 26.771 1.871 33.04-5.537 6.813-8.053 12.099-19.422 15.695-29.238 6.849 13.9 14.79 28.193 15.886 43.826 25.994-4.807 33.474-35.326 31.882-57.301 13.821 20.668 33.218 40.234 57.606 46.832 7.847-25.914-3.084-54.479-18.635-75.628 8.562.5 19.662-.151 26.164 6.87 5.683 6.139 5.79 16.047 6.967 23.834 25.366-13.209 10.776-45.184-7.528-57.684 13.844 4.48 28.103 8.299 41.671 13.305 2.405-19.23-6.689-40.458-22.606-51.991 10.758 1.303 23.115 8.144 30.718 15.882 9.96-8.299 1.475-32.621-2.208-37.979-4.072-5.928-11.352-13.452-18.643-19.243 15.585-2.623 30.424-7.561 46.476-4.001-.564-21.185-12.428-31.073-26.47-38.781-7.414-1.887-13.873-5.137-21.545-6.156 22.804-9.063 49.362-21.096 60.941-44.321-23.925-11.638-52.801-11.426-77.646-1.403 3.247-26.169 19.868-22.708 37.093-21.242-7.808-23.409-36.623-21.444-52.706-10.288 7.405-10.12 12.628-26.152 21.544-34.472-22.683-7.842-50.047-1.222-66.056 18.376 2.812-14.699 9.237-30.841 21.36-40.536-18.044-19.052-45.358-1.157-58.721 14.772-.274-15.732-3.391-32.043 1.668-47.215-27.771-3.55-43.808 19.174-49.688 42.31-5.186-24.024-17.489-49.846-36.927-65.885-15.12 20.46-18.075 47.267-12.927 71.406-19.307-2.725-15.174-23.624-11.269-36.7-26.28 3.45-27.293 34.332-16.433 52.705-10.763-8.687-21.795-17.584-32.484-26.288-4.931 10.355-8.24 21.448-7.527 33.059-4.161-2.673-4.642-9.159-7.994-12.176-22.987 12.433-14.541 42.585-3.086 60.189-15.28-3.827-31.485-6.593-44.798-15.823-11.442 22.145 6.202 49.718 25.989 61.216-26.892-3.009-50.575 1.751-74.449 14.009 7.615 12.288 24.858 24.937 38.618 31.08-4.603 2.089-20.065-4.504-24.833-2.833.655 1.253 23.449 35.669 52.389 33.001-7.982 14.28-28.719 9.759-37.24.312"/>
    <path i:knockout="Off" fill="none" stroke="#fff" stroke-linecap="round" stroke-width="3" d="M345.167 107.165c6.136 24.385 20.526 56.996 37.5 76.083m12.666-2.666c-2.419-20.66-3.396-57.697 2-79.917m-151 125.25c18.738 10.288 51.357 19.404 71.667 24.667m-1.333 12c-36.5 18.167-89.167 12.834-99.333 10.5m14.499 30.583c24.527.592 62.311-10.058 86.167-13.417m-99.25 42.834c31.297 3.414 76.972-15.959 106.25-23.834m-25.583 98.584c17.423-17.621 37.215-49.515 45.917-72.917m-18.751 91.167c4.614-23.654 20.066-60.253 37.75-78.167m10.417 79.167c6.355-20.051 14.87-49.203 18.583-69.834m26.167 74.001c6.803-21.58 8.416-53.775 5.167-76.334m45 65.001c-3.225-20.68-17.265-52.991-26-72.001M510 387.249c-12.47-16.453-35.232-36.487-53-47.001m80.833 21.001c-19.364-7.184-48.596-23.02-62.5-39.334m81 .001c-19.098-12.309-46.189-23.344-67-32.334m2.591-36.744c24.322 3.139 51.059 13.222 72.076 25.952m-75.77-43.187c23.209-4.955 53.289-9.184 77.145-6.812m-82.685-4.269c16.21-18.965 37.94-33.706 60.935-42.857m-13.25-32.25c-14.346 22.679-40.244 46.902-66.042 56.5m19.979-74.437c-15.097 16.351-30.479 36.657-44.097 54.264M316.062 122.29c18.46 15.432 41.63 43.092 47.938 66.958m-85.938-59.645c8.988 10.88 24.224 20.905 34.836 29.74 12.452 10.367 19.666 35.489 24.768 50.239M265 178.54c12.501 18.935 38.839 43.536 58.333 54.708m123.605-127.145c-15.587 19.427-27.24 51.375-33.938 75.146M263.667 367.248c20.728-8.072 55.646-26.372 73.333-40.333"/>
    <circle cx="403.5" cy="268.58099" r="88.333" fill="#8e7650" stroke="#fff" stroke-width="3"/>
  </g>
</svg>